<svg preserveAspectRatio="none" overflow="visible" style="display: block;" width="21" height="21" viewBox="0 0 21 21" fill="none" xmlns="http://www.w3.org/2000/svg">
<g id="Frame">
<path id="Vector" d="M2.625 10.5C2.625 8.80863 3.99613 7.4375 5.6875 7.4375C6.74056 7.4375 7.45464 7.81708 8.04925 8.41169C8.68481 9.04724 9.17446 9.91568 9.73508 10.9249L9.76456 10.9779C10.2904 11.9248 10.8877 13.0001 11.7133 13.8258C12.5953 14.7077 13.7406 15.3125 15.3125 15.3125C17.9704 15.3125 20.125 13.1579 20.125 10.5C20.125 7.84213 17.9704 5.6875 15.3125 5.6875C13.8595 5.6875 12.557 6.33141 11.6745 7.34945C12.0651 7.9223 12.3877 8.49255 12.656 8.97522C13.1846 8.05628 14.1762 7.4375 15.3125 7.4375C17.0039 7.4375 18.375 8.80863 18.375 10.5C18.375 12.1914 17.0039 13.5625 15.3125 13.5625C14.2594 13.5625 13.5454 13.1829 12.9508 12.5883C12.3152 11.9528 11.8255 11.0843 11.2649 10.0751L11.2354 10.0221C10.7096 9.07524 10.1123 7.99982 9.28673 7.17425C8.40473 6.2923 7.25944 5.6875 5.6875 5.6875C3.02963 5.6875 0.875 7.84213 0.875 10.5C0.875 13.1579 3.02963 15.3125 5.6875 15.3125C7.14049 15.3125 8.44308 14.6686 9.32549 13.6505C8.93489 13.0777 8.61229 12.5074 8.34404 12.0248C7.81545 12.9437 6.82374 13.5625 5.6875 13.5625C3.99613 13.5625 2.625 12.1914 2.625 10.5Z" fill="white"/>
</g>
</svg>
